<svg width="27" height="27" viewBox="0 0 27 27" fill="none" xmlns="http://www.w3.org/2000/svg">
<path d="M1 9.33333V24.6111C1 24.9795 1.14633 25.3327 1.4068 25.5932C1.66726 25.8537 2.02053 26 2.38889 26H24.6111C24.9795 26 25.3327 25.8537 25.5932 25.5932C25.8537 25.3327 26 24.9795 26 24.6111V9.33333M1 9.33333H26M1 9.33333V3.77778C1 3.40942 1.14633 3.05615 1.4068 2.79569C1.66726 2.53522 2.02053 2.38889 2.38889 2.38889H24.6111C24.9795 2.38889 25.3327 2.53522 25.5932 2.79569C25.8537 3.05615 26 3.40942 26 3.77778V9.33333M19.0556 1V5.16667M7.94444 1V5.16667" stroke="black" stroke-width="2" stroke-linecap="round" stroke-linejoin="round"/>
<path d="M9.3335 17.6666L12.1113 20.4444L17.6668 14.8889" stroke="black" stroke-width="2" stroke-linecap="round" stroke-linejoin="round"/>
</svg>
