<svg width="25" height="25" viewBox="0 0 25 25" fill="none" xmlns="http://www.w3.org/2000/svg">
<path d="M12.5 25C19.4036 25 25 19.4036 25 12.5C25 5.59644 19.4036 0 12.5 0C5.59644 0 0 5.59644 0 12.5C0 19.4036 5.59644 25 12.5 25Z" fill="#5A409B"/>
<path d="M13 12L21 9.25619V8.16972C21 7.52386 20.4811 7 19.8415 7H6.15854C5.51886 7 5 7.52386 5 8.16972V9.25619L13 12Z" fill="#F2C900"/>
<path d="M13.0002 13.8347L5 11.0004V17.7917C5 18.4589 5.51887 19 6.15857 19H19.8414C20.4811 19 21 18.4589 21 17.7917V11L13.0002 13.8347Z" fill="#F2C900"/>
</svg>
