<svg width="25" height="25" viewBox="0 0 25 25" fill="none" xmlns="http://www.w3.org/2000/svg">
<path d="M25 12.5004C25 18.8135 20.3199 24.0326 14.2405 24.8798C13.6718 24.959 13.0902 25 12.5 25C11.8184 25 11.1497 24.9453 10.4975 24.8402C4.54625 23.8822 0 18.7214 0 12.4996C0 5.59626 5.59643 0 12.5 0C19.4036 0 25 5.59626 25 12.4996V12.5004Z" fill="#5A409B"/>
<path d="M14.2402 10.0366V12.7595H17.6089L17.0755 16.4282H14.2402V24.8798C13.6716 24.959 13.09 25 12.4997 25C11.8181 25 11.1494 24.9453 10.4973 24.8402V16.4282H7.39062V12.7595H10.4973V9.42836C10.4973 7.36116 12.173 5.6848 14.2409 5.6848V5.68696C14.2467 5.68696 14.2524 5.6848 14.2582 5.6848H17.6096V8.85685H15.42C14.7686 8.85685 14.2409 9.38445 14.2409 10.0358L14.2402 10.0366Z" fill="#F2C900"/>
</svg>
