<svg width="25" height="25" viewBox="0 0 25 25" fill="none" xmlns="http://www.w3.org/2000/svg">
<path d="M25 12.5004C25 18.8135 20.3199 24.0326 14.2405 24.8798C13.6718 24.959 13.0902 25 12.5 25C11.8184 25 11.1497 24.9453 10.4975 24.8402C4.54625 23.8822 0 18.7214 0 12.4996C0 5.59626 5.59643 0 12.5 0C19.4036 0 25 5.59626 25 12.4996V12.5004Z" fill="#5A409B"/>
<path d="M16.4135 4.99669H8.58428C6.42129 4.99669 4.66211 6.75582 4.66211 8.91875V16.0812C4.66211 18.2442 6.42129 20.0033 8.58428 20.0033H16.4135C18.5765 20.0033 20.3357 18.2442 20.3357 16.0812V8.91875C20.3357 6.75582 18.5765 4.99669 16.4135 4.99669ZM6.04556 8.91875C6.04556 7.51879 7.18428 6.3801 8.58428 6.3801H16.4135C17.8135 6.3801 18.9522 7.51879 18.9522 8.91875V16.0812C18.9522 17.4812 17.8135 18.6199 16.4135 18.6199H8.58428C7.18428 18.6199 6.04556 17.4812 6.04556 16.0812V8.91875Z" fill="#F2C900"/>
<path d="M12.4983 16.1489C14.5101 16.1489 16.1469 14.5121 16.1469 12.5004C16.1469 10.4886 14.5101 8.85181 12.4983 8.85181C10.4864 8.85181 8.84961 10.4886 8.84961 12.5004C8.84961 14.5121 10.4864 16.1489 12.4983 16.1489ZM12.4983 10.2359C13.7471 10.2359 14.7628 11.2515 14.7628 12.5004C14.7628 13.7492 13.7471 14.7648 12.4983 14.7648C11.2494 14.7648 10.2338 13.7492 10.2338 12.5004C10.2338 11.2515 11.2494 10.2359 12.4983 10.2359Z" fill="#F2C900"/>
<path d="M16.4852 9.4406C17.0272 9.4406 17.4684 8.99937 17.4684 8.45738C17.4684 7.91539 17.0272 7.47417 16.4852 7.47417C15.9432 7.47417 15.502 7.91539 15.502 8.45738C15.502 8.99937 15.9432 9.4406 16.4852 9.4406Z" fill="#F2C900"/>
</svg>
