<svg width="25" height="25" viewBox="0 0 25 25" fill="none" xmlns="http://www.w3.org/2000/svg">
<g clip-path="url(#clip0_95_129)">
<path fill-rule="evenodd" clip-rule="evenodd" d="M22.8433 23.2503C22.8433 23.4558 22.6765 23.6246 22.469 23.6246H2.42706C2.22158 23.6246 2.05272 23.4578 2.05272 23.2503V11.8856C1.63361 12.0463 1.24502 12.0483 0.919496 11.9405C0.665182 11.855 0.451559 11.7024 0.294902 11.5031C0.138245 11.3057 0.0385547 11.0636 0.00803713 10.7991C-0.036722 10.3861 0.0873828 9.91819 0.437318 9.48077C0.455628 9.45839 0.475973 9.43804 0.498353 9.41973L12.2171 1.47092C12.3493 1.34885 12.5528 1.33664 12.6993 1.45057L24.4384 9.38311C24.4547 9.39532 24.4689 9.40956 24.4831 9.4238C24.9551 9.93243 25.0731 10.496 24.9592 10.9741C24.9022 11.2081 24.7903 11.4217 24.6357 11.5946C24.4811 11.7696 24.2838 11.9039 24.0579 11.9852C23.6999 12.1155 23.2767 12.1093 22.8454 11.9059C22.8433 15.0797 22.8433 20.0785 22.8433 23.2503ZM9.22231 8.76869H15.7755V13.1815H9.22231V8.76869ZM11.4501 9.96701C11.6393 9.96701 11.7939 10.1216 11.7939 10.3108C11.7939 10.5001 11.6393 10.6547 11.4501 10.6547C11.2609 10.6547 11.1063 10.5001 11.1063 10.3108C11.1063 10.1196 11.2589 9.96701 11.4501 9.96701ZM12.8966 11.442L13.6697 10.2539L14.4001 12.1012H10.8194V11.8713L11.1063 11.8571L11.3931 11.1552L11.621 11.6577H12.0503L12.4226 10.6974L12.8966 11.442ZM9.61701 9.22239H15.3848V12.7278H9.61701V9.22239ZM12.3961 16.5669C12.4043 16.569 12.4145 16.5669 12.4226 16.5588C12.862 16.215 13.507 16.3594 13.802 17.0796H13.7959C13.214 17.574 12.7969 18.1111 12.6464 18.7113H11.8041L12.3961 16.5669ZM15.3299 17.9402C15.4011 18.5506 14.7745 19.0775 14.2231 18.9107C14.1458 19.045 14.0868 19.2138 14.04 19.4173C13.9363 19.8913 13.9668 19.7469 14.0115 20.2067C14.0726 20.8191 14.0075 21.2361 13.6128 21.4152V21.6512H5.64158V21.4152C5.33437 21.3053 5.20213 21.0042 5.24892 20.5098C5.35065 19.578 5.28758 19.2871 5.05361 18.9351C4.64264 18.9494 4.3456 18.8517 4.16046 18.6442C3.78204 18.223 3.89801 17.6066 4.37002 17.3116C4.46767 17.2505 4.5816 17.2037 4.71385 17.1753C5.72703 16.9616 6.28652 17.9992 6.55508 18.8171L9.21417 18.8883C9.39524 18.9127 9.51121 18.9941 9.58852 19.104C9.65973 18.9961 9.76349 18.9148 9.92218 18.8781C10.7502 18.8415 11.3423 18.9514 11.9465 18.9514H12.6505C12.7949 18.9514 12.8702 18.8883 12.8946 18.7724C13.0736 18.2271 13.7084 17.1325 14.3737 17.1529C14.7826 17.1671 15.2282 17.4479 15.3299 17.9402ZM5.52155 17.0145C5.7901 16.4164 6.20921 16.2679 6.78091 16.4673L7.39329 18.573H6.73208C6.42487 17.9463 6.22142 17.3095 5.52155 17.0145ZM7.03929 16.4835C7.04743 16.4795 7.05353 16.4734 7.0576 16.4632C7.28343 15.9424 7.90599 15.7959 8.41461 16.0197C8.41461 16.0176 8.41665 16.0176 8.41665 16.0176L8.55499 18.6991H7.67405L7.03929 16.4835ZM8.68724 15.9627C8.85203 15.2771 10.4145 15.4175 10.559 15.8895C10.5793 15.8874 10.3962 18.4204 10.384 18.7011H10.1521C9.78587 18.7011 9.46238 18.7011 9.10024 18.7011H8.80727L8.69334 15.9627H8.68724ZM10.7624 16.0787C10.7665 16.0787 10.7726 16.0766 10.7787 16.0746C11.3443 15.7735 12.1317 15.9932 12.2069 16.3859L12.1683 16.4001L11.5478 18.6991H10.6302L10.7624 16.0787ZM18.8862 17.2221V20.9554H19.639C19.7549 20.9554 19.8485 21.0917 19.8485 21.2077C19.8485 21.3236 19.7549 21.4599 19.639 21.4599H17.5536C17.4376 21.4599 17.3441 21.3236 17.3441 21.2077C17.3441 21.0917 17.4376 20.9554 17.5536 20.9554H18.3064V17.2221H18.8862ZM17.515 14.3941H19.6715L20.3043 16.8904H16.8863L17.515 14.3941ZM21.9034 22.6827V11.4685C21.9034 11.4441 21.9054 11.4197 21.9095 11.3973L12.5365 5.15337L2.98248 11.3993C2.99062 11.4298 2.99469 11.4624 2.99469 11.4949V22.6827C9.29759 22.6827 15.6005 22.6827 21.9034 22.6827Z" fill="black"/>
</g>
<defs>
<clipPath id="clip0_95_129">
<rect width="25" height="25" fill="white"/>
</clipPath>
</defs>
</svg>
