<svg width="25" height="26" viewBox="0 0 25 26" fill="none" xmlns="http://www.w3.org/2000/svg">
<path d="M25 13.0004C25 19.5661 20.3199 24.9939 14.2405 25.875C13.6718 25.9573 13.0902 26 12.5 26C11.8184 26 11.1497 25.9431 10.4975 25.8338C4.54625 24.8375 0 19.4702 0 12.9996C0 5.82012 5.59643 0 12.5 0C19.4036 0 25 5.82012 25 12.9996V13.0004Z" fill="#5A409B"/>
<path d="M14.8225 16.8488C11.5841 16.848 8.94896 14.1075 8.94824 10.7404C8.94968 9.88708 9.61693 9.19241 10.4368 9.19241C10.521 9.19241 10.6045 9.19989 10.6837 9.21486C10.8593 9.24481 11.0256 9.30695 11.1796 9.39977C11.2019 9.41324 11.217 9.4357 11.2206 9.4619L11.5626 11.7054C11.5669 11.7316 11.5589 11.7577 11.5424 11.7772C11.3531 11.995 11.112 12.1515 10.8442 12.2301L10.7153 12.2683L10.7643 12.3985C11.2062 13.567 12.1046 14.502 13.2289 14.9616L13.3541 15.0125L13.3901 14.8778C13.4657 14.5986 13.6161 14.3478 13.8256 14.1517C13.8407 14.1375 13.8609 14.1292 13.8817 14.1292C13.8861 14.1292 13.8911 14.1292 13.8954 14.1307L16.0519 14.4863C16.0778 14.4908 16.0987 14.5057 16.1124 14.5289C16.2009 14.6891 16.2607 14.8628 16.2902 15.0447C16.3038 15.1263 16.3111 15.2116 16.3111 15.3015C16.3111 16.1541 15.6431 16.848 14.8225 16.8495V16.8488Z" fill="#F2C900"/>
<path d="M20.5652 12.2615C20.3903 10.209 19.4862 8.30536 18.0193 6.90179C16.5437 5.48924 14.6283 4.71149 12.6259 4.71149C8.23078 4.71149 4.65483 8.43037 4.65483 13.0011C4.65483 14.5349 5.0615 16.0298 5.83168 17.3316L4.11426 21.2863L9.61494 20.6769C10.5716 21.0842 11.5843 21.2908 12.6259 21.2908C12.9001 21.2908 13.1808 21.2758 13.4623 21.2459C13.7106 21.2182 13.9611 21.1777 14.208 21.1261C17.889 20.3528 20.576 16.9551 20.5969 13.0453V13.0011C20.5969 12.7519 20.5861 12.5033 20.5645 12.2623L20.5652 12.2615ZM9.82584 18.941L6.78255 19.2779L7.69165 17.1841L7.51026 16.9304C7.49658 16.9116 7.48362 16.8929 7.4685 16.872C6.6796 15.7394 6.26284 14.4009 6.26284 13.0004C6.26284 9.35111 9.11757 6.38304 12.6259 6.38304C15.9132 6.38304 18.6988 9.05019 18.9673 12.4547C18.9817 12.6373 18.9889 12.8207 18.9889 13.0011C18.9889 13.0528 18.9881 13.1037 18.9867 13.1576C18.919 16.2102 16.8683 18.8025 13.9999 19.4628C13.7811 19.5137 13.5566 19.5518 13.3327 19.5773C13.1002 19.605 12.862 19.6185 12.6251 19.6185C11.7823 19.6185 10.9631 19.4485 10.1886 19.1132C10.103 19.0772 10.0187 19.0391 9.93957 18.9994L9.82441 18.9418L9.82584 18.941Z" fill="#F2C900"/>
</svg>
